<?xml version="1.0" encoding="iso-8859-1"?>
<!-- Generator: Adobe Illustrator 19.0.0, SVG Export Plug-In . SVG Version: 6.00 Build 0)  -->
<svg version="1.1" id="Capa_1" xmlns="http://www.w3.org/2000/svg" xmlns:xlink="http://www.w3.org/1999/xlink" x="0px" y="0px"
	 viewBox="0 0 491.52 491.52" style="enable-background:new 0 0 491.52 491.52;" xml:space="preserve">
<circle style="fill:#334D5C;" cx="245.76" cy="245.76" r="245.76"/>
<path style="fill:#EBF0F3;" d="M302.729,104.961H188.791c-24.384,0-44.151,19.767-44.151,44.151v193.296
	c0,24.384,19.767,44.152,44.151,44.152h113.937c24.384,0,44.151-19.768,44.151-44.152V149.112
	C346.88,124.728,327.113,104.961,302.729,104.961z"/>
<rect x="243.2" y="104.96" style="fill:#E1E6E9;" width="5.12" height="148.48"/>
<path style="fill:#D5D6DB;" d="M245.759,136.311c-9.219,0-16.691,7.474-16.691,16.693v33.95c0,9.219,7.472,16.692,16.691,16.692
	c9.219,0,16.692-7.473,16.692-16.692v-33.95C262.452,143.784,254.978,136.311,245.759,136.311z"/>
<g>
</g>
<g>
</g>
<g>
</g>
<g>
</g>
<g>
</g>
<g>
</g>
<g>
</g>
<g>
</g>
<g>
</g>
<g>
</g>
<g>
</g>
<g>
</g>
<g>
</g>
<g>
</g>
<g>
</g>
</svg>
